<svg width="510" height="311" viewBox="0 0 510 311" fill="none" xmlns="http://www.w3.org/2000/svg">
<g clip-path="url(#clip0_609_125)">
<path d="M150 75C150 33.5786 116.421 0 75 0C33.5786 0 0 33.5786 0 75C0 116.421 33.5786 150 75 150C116.421 150 150 116.421 150 75Z" fill="#34D399"/>
<path d="M42.1875 98.4375C48.6596 98.4375 53.9062 93.1908 53.9062 86.7188C53.9062 80.2467 48.6596 75 42.1875 75C35.7154 75 30.4688 80.2467 30.4688 86.7188C30.4688 93.1908 35.7154 98.4375 42.1875 98.4375Z" fill="#EAC0B3"/>
<path d="M42.1875 96.0938H82.0312V154.384C82.0312 154.384 73.4932 159.375 62.1094 159.375C50.7255 159.375 42.1875 151.225 42.1875 151.225V96.0938Z" fill="#EAC0B3"/>
<path d="M81.5892 124.482C81.5892 137.102 79.5473 135.907 66.2756 135.907C53.0041 135.907 46.8787 125.676 46.8787 113.056C46.8787 100.436 46.375 89.0625 57.0876 89.0625C87.3747 90.1786 81.5892 111.861 81.5892 124.482Z" fill="#C99688"/>
<path d="M107.545 84.6075C107.545 105.519 104.297 131.234 78.5156 131.234C52.7344 131.234 40.8478 105.519 40.8478 84.6075C35.1563 59.7656 36.3281 30.4688 75 30.4688C113.672 30.4688 107.545 63.6954 107.545 84.6075Z" fill="#F5D0C5"/>
<path d="M89.0625 96.0938H86.7188C85.4243 96.0938 84.375 97.1431 84.375 98.4375C84.375 99.7319 85.4243 100.781 86.7188 100.781H89.0625C90.3569 100.781 91.4062 99.7319 91.4062 98.4375C91.4062 97.1431 90.3569 96.0938 89.0625 96.0938Z" fill="#EAC0B3"/>
<path d="M89.0625 140.625H37.5C25.8502 140.625 16.4062 150.069 16.4062 161.719V173.438C16.4062 185.087 25.8502 194.531 37.5 194.531H89.0625C100.712 194.531 110.156 185.087 110.156 173.438V161.719C110.156 150.069 100.712 140.625 89.0625 140.625Z" fill="#3633E0"/>
<path d="M39.8438 135.938H84.375V142.969C84.375 142.969 72.6562 145.312 62.1094 145.312C51.5625 145.312 39.8438 142.969 39.8438 142.969V135.938Z" fill="#3633E0"/>
<path d="M39.8438 135.938H84.375V140.625C84.375 140.625 77.3438 144.141 62.1094 144.141C46.875 144.141 39.8438 140.625 39.8438 140.625V135.938Z" fill="#362ABC"/>
<path d="M38.6719 138.281C38.6719 135.692 40.7705 133.594 43.3594 133.594H80.8594C83.4483 133.594 85.5469 135.692 85.5469 138.281C85.5469 138.281 73.8281 140.625 62.1094 140.625C50.3906 140.625 38.6719 138.281 38.6719 138.281Z" fill="#3633E0"/>
<path fill-rule="evenodd" clip-rule="evenodd" d="M112.5 58.5938C112.5 53.0536 111.409 47.5678 109.289 42.4493C107.168 37.3308 104.061 32.6801 100.144 28.7627C96.2262 24.8452 91.5755 21.7377 86.457 19.6176C81.3384 17.4975 75.8527 16.4062 70.3125 16.4062C64.7723 16.4062 59.2866 17.4975 54.168 19.6176C49.0495 21.7377 44.3988 24.8452 40.4815 28.7627C36.5639 32.6801 33.4566 37.3308 31.3364 42.4493C29.366 47.2059 28.2844 52.2797 28.1414 57.4198L28.125 57.4219V58.5938V152.344H53.9062V81.0879C59.7298 79.9671 69.7952 77.502 82.5195 72.2829C95.3243 67.0303 103.315 62.0679 107.521 59.0716C108.089 64.987 107.892 71.1649 107.71 76.9097C107.625 79.5938 107.542 82.1834 107.542 84.6075C107.542 85.563 107.523 86.5235 107.485 87.4873C108.027 87.3164 108.533 87.1291 108.982 86.9243C112.497 85.3207 112.497 83.1825 112.497 83.1825V58.5938H112.5ZM35.1562 77.3438C34.7135 77.6756 34.294 78.0394 33.9012 78.4324C32.813 79.5206 31.9498 80.8125 31.3608 82.2342C30.7718 83.6559 30.4688 85.1798 30.4688 86.7188C30.4688 88.2577 30.7718 89.7816 31.3608 91.2033C31.9498 92.625 32.813 93.9169 33.9012 95.0051C34.294 95.3981 34.7135 95.7619 35.1562 96.0938V77.3438Z" fill="#1B0B47"/>
<path d="M67.8014 107.812C67.8014 106.518 68.8507 105.469 70.1451 105.469H91.5736C92.868 105.469 93.9173 106.518 93.9173 107.812C93.9173 114.285 88.6706 119.531 82.1986 119.531H79.5201C73.0479 119.531 67.8014 114.285 67.8014 107.812Z" fill="#66253C"/>
<path fill-rule="evenodd" clip-rule="evenodd" d="M86.1438 118.851C84.911 119.291 83.5828 119.531 82.1986 119.531H79.5201C73.2049 119.531 68.0564 114.536 67.8105 108.281C69.6012 107.611 72.259 107.688 74.8826 107.764C75.7162 107.788 76.5462 107.813 77.3437 107.813C82.5215 107.813 86.7187 111.485 86.7187 116.016C86.7187 117.012 86.5158 117.967 86.1438 118.851Z" fill="#B03E67"/>
<path d="M70.3125 105.469H93.75V107.812C93.75 109.107 92.7007 110.156 91.4062 110.156H72.6562C71.3618 110.156 70.3125 109.107 70.3125 107.812V105.469Z" fill="white"/>
<path d="M77.3438 87.8906C77.3438 85.949 75.7698 84.375 73.8281 84.375C71.8865 84.375 70.3125 85.949 70.3125 87.8906V90.2344C70.3125 92.176 71.8865 93.75 73.8281 93.75C75.7698 93.75 77.3438 92.176 77.3438 90.2344V87.8906Z" fill="#1B0B47"/>
<path d="M100.781 87.8906C100.781 85.949 99.2073 84.375 97.2656 84.375C95.324 84.375 93.75 85.949 93.75 87.8906V90.2344C93.75 92.176 95.324 93.75 97.2656 93.75C99.2073 93.75 100.781 92.176 100.781 90.2344V87.8906Z" fill="#1B0B47"/>
</g>
<g clip-path="url(#clip1_609_125)">
<path d="M330 75C330 33.5786 296.421 0 255 0C213.579 0 180 33.5786 180 75C180 116.421 213.579 150 255 150C296.421 150 330 116.421 330 75Z" fill="#3B82F6"/>
<path d="M222.188 98.4375C228.66 98.4375 233.906 93.1908 233.906 86.7188C233.906 80.2467 228.66 75 222.188 75C215.715 75 210.469 80.2467 210.469 86.7188C210.469 93.1908 215.715 98.4375 222.188 98.4375Z" fill="#68463C"/>
<path d="M222.188 96.0938H262.031V154.384C262.031 154.384 253.493 159.375 242.109 159.375C230.726 159.375 222.188 151.225 222.188 151.225V96.0938Z" fill="#68463C"/>
<path d="M262.031 126.253C262.031 139.504 259.963 138.249 246.523 138.249C233.082 138.249 226.879 127.507 226.879 114.256C226.879 101.005 226.369 89.0625 237.218 89.0625C267.891 90.2344 262.031 113.001 262.031 126.253Z" fill="#553329"/>
<path d="M287.545 84.6075C287.545 105.519 296.183 131.234 258.516 131.234C220.848 131.234 220.848 105.519 220.848 84.6075C215.156 59.7656 216.328 30.4688 255 30.4688C293.672 30.4688 287.545 63.6954 287.545 84.6075Z" fill="#836055"/>
<path d="M269.062 96.0938H266.719C265.424 96.0938 264.375 97.1431 264.375 98.4375C264.375 99.7319 265.424 100.781 266.719 100.781H269.062C270.357 100.781 271.406 99.7319 271.406 98.4375C271.406 97.1431 270.357 96.0938 269.062 96.0938Z" fill="#68463C"/>
<path d="M269.062 140.625H217.5C205.85 140.625 196.406 150.069 196.406 161.719V173.438C196.406 185.087 205.85 194.531 217.5 194.531H269.062C280.712 194.531 290.156 185.087 290.156 173.438V161.719C290.156 150.069 280.712 140.625 269.062 140.625Z" fill="#BEF264"/>
<path fill-rule="evenodd" clip-rule="evenodd" d="M287.737 76.1327C290.581 74.5226 292.5 71.4698 292.5 67.9688C292.5 66.8135 292.291 65.707 291.909 64.6852C295.034 63.1648 297.187 59.9588 297.187 56.25C297.187 51.0724 292.99 46.875 287.812 46.875C286.818 46.875 285.859 47.0299 284.959 47.317C288.282 55.9277 288.038 66.5787 287.737 76.1327Z" fill="#47280B"/>
<path fill-rule="evenodd" clip-rule="evenodd" d="M265.07 53.3423C263.008 55.1524 260.304 56.25 257.344 56.25C254.645 56.25 252.159 55.3378 250.178 53.8048C247.211 56.7642 243.116 58.5938 238.594 58.5938C236.926 58.5938 235.316 58.3448 233.8 57.8822C233.191 58.5487 232.488 59.127 231.711 59.5957C233.081 61.2258 233.906 63.3291 233.906 65.625C233.906 69.3668 231.714 72.5967 228.544 74.1002C228.968 74.6813 229.219 75.3973 229.219 76.1719C229.219 78.1134 227.645 79.6875 225.703 79.6875C225.676 79.6875 225.649 79.6873 225.621 79.6866C224 82.4892 220.97 84.375 217.5 84.375C212.322 84.375 208.125 80.1776 208.125 75C208.125 74.0463 208.268 73.1259 208.532 72.259C206.833 70.5621 205.781 68.2163 205.781 65.625C205.781 63.0337 206.833 60.6879 208.532 58.991C208.268 58.1241 208.125 57.2037 208.125 56.25C208.125 53.9866 208.927 51.9105 210.262 50.2905C208.902 47.9002 208.125 45.1345 208.125 42.1875C208.125 34.7468 213.078 28.463 219.867 26.4537C219.852 26.2315 219.844 26.0074 219.844 25.7812C219.844 20.6036 224.041 16.4062 229.219 16.4062C230.866 16.4062 232.413 16.8309 233.758 17.5766C236.595 12.6736 241.897 9.375 247.969 9.375C251.187 9.375 254.19 10.3019 256.723 11.9034C259.505 8.90651 263.479 7.03125 267.891 7.03125C274.258 7.03125 279.712 10.9371 281.989 16.4834C286.596 17.0761 290.156 21.0129 290.156 25.7812C290.156 26.2678 290.119 26.7455 290.048 27.2119C294.396 30.431 297.188 35.4178 297.188 41.0156C297.188 50.7237 288.793 58.5938 278.438 58.5938C273.204 58.5938 268.472 56.5837 265.07 53.3423Z" fill="#47280B"/>
<path d="M247.801 107.812C247.801 106.518 248.851 105.469 250.145 105.469H271.574C272.868 105.469 273.917 106.518 273.917 107.812C273.917 114.285 268.671 119.531 262.199 119.531H259.52C253.048 119.531 247.801 114.285 247.801 107.812Z" fill="#66253C"/>
<path fill-rule="evenodd" clip-rule="evenodd" d="M266.144 118.851C264.911 119.291 263.583 119.531 262.199 119.531H259.52C253.205 119.531 248.056 114.536 247.811 108.281C249.601 107.611 252.259 107.688 254.883 107.764C255.716 107.788 256.546 107.813 257.344 107.813C262.522 107.813 266.719 111.485 266.719 116.016C266.719 117.012 266.516 117.967 266.144 118.851Z" fill="#B03E67"/>
<path d="M250.312 105.469H273.75V107.812C273.75 109.107 272.701 110.156 271.406 110.156H252.656C251.362 110.156 250.312 109.107 250.312 107.812V105.469Z" fill="white"/>
<path d="M257.344 87.8906C257.344 85.949 255.77 84.375 253.828 84.375C251.886 84.375 250.312 85.949 250.312 87.8906V90.2344C250.312 92.176 251.886 93.75 253.828 93.75C255.77 93.75 257.344 92.176 257.344 90.2344V87.8906Z" fill="#1B0B47"/>
<path d="M280.781 87.8906C280.781 85.949 279.207 84.375 277.266 84.375C275.324 84.375 273.75 85.949 273.75 87.8906V90.2344C273.75 92.176 275.324 93.75 277.266 93.75C279.207 93.75 280.781 92.176 280.781 90.2344V87.8906Z" fill="#1B0B47"/>
</g>
<g clip-path="url(#clip2_609_125)">
<path d="M510 75C510 33.5786 476.421 0 435 0C393.579 0 360 33.5786 360 75C360 116.421 393.579 150 435 150C476.421 150 510 116.421 510 75Z" fill="#FCD34D"/>
<path d="M402.188 98.4375C408.66 98.4375 413.906 93.1908 413.906 86.7188C413.906 80.2467 408.66 75 402.188 75C395.715 75 390.469 80.2467 390.469 86.7188C390.469 93.1908 395.715 98.4375 402.188 98.4375Z" fill="#EAC0B3"/>
<path d="M402.188 96.0938H442.031V154.384C442.031 154.384 433.493 159.375 422.109 159.375C410.726 159.375 402.188 151.225 402.188 151.225V96.0938Z" fill="#EAC0B3"/>
<path d="M441.589 124.482C441.589 137.102 439.547 135.907 426.276 135.907C413.004 135.907 406.879 125.676 406.879 113.056C406.879 100.436 406.375 89.0625 417.088 89.0625C447.375 90.1786 441.589 111.861 441.589 124.482Z" fill="#C99688"/>
<path d="M467.545 84.6075C467.545 105.519 464.297 131.234 438.516 131.234C412.734 131.234 400.848 105.519 400.848 84.6075C395.156 59.7656 396.328 30.4688 435 30.4688C473.672 30.4688 467.545 63.6954 467.545 84.6075Z" fill="#F5D0C5"/>
<path d="M449.062 96.0938H446.719C445.424 96.0938 444.375 97.1431 444.375 98.4375C444.375 99.7319 445.424 100.781 446.719 100.781H449.062C450.357 100.781 451.406 99.7319 451.406 98.4375C451.406 97.1431 450.357 96.0938 449.062 96.0938Z" fill="#EAC0B3"/>
<path d="M449.062 140.625H397.5C385.85 140.625 376.406 150.069 376.406 161.719V173.438C376.406 185.087 385.85 194.531 397.5 194.531H449.062C460.712 194.531 470.156 185.087 470.156 173.438V161.719C470.156 150.069 460.712 140.625 449.062 140.625Z" fill="#374151"/>
<path fill-rule="evenodd" clip-rule="evenodd" d="M427.886 61.4088C441.038 65.775 459.266 71.827 478.359 52.7343C487.734 43.3593 445.547 3.51559 411.563 25.7812C385 29.7164 386.518 45.6323 387.69 57.9154C387.914 60.2639 388.125 62.4794 388.125 64.4531C388.125 65.7021 388.288 66.6368 388.594 67.3082C388.218 70.1983 388.125 73.0903 388.125 75C388.125 80.1775 392.322 84.375 397.5 84.375C402.678 84.375 406.875 80.1775 406.875 75C412.053 75 416.25 70.8025 416.25 65.625C416.25 64.814 416.147 64.027 415.954 63.2765C416.052 63.2796 416.151 63.2812 416.25 63.2812C419.118 63.2812 421.685 61.9933 423.405 59.9641C424.822 60.3914 426.318 60.8882 427.886 61.4088Z" fill="#47280B"/>
<path d="M427.801 107.812C427.801 106.518 428.851 105.469 430.145 105.469H451.574C452.868 105.469 453.917 106.518 453.917 107.812C453.917 114.285 448.671 119.531 442.199 119.531H439.52C433.048 119.531 427.801 114.285 427.801 107.812Z" fill="#66253C"/>
<path fill-rule="evenodd" clip-rule="evenodd" d="M446.144 118.851C444.911 119.291 443.583 119.531 442.199 119.531H439.52C433.205 119.531 428.056 114.536 427.811 108.281C429.601 107.611 432.259 107.688 434.883 107.764C435.716 107.788 436.546 107.813 437.344 107.813C442.522 107.813 446.719 111.485 446.719 116.016C446.719 117.012 446.516 117.967 446.144 118.851Z" fill="#B03E67"/>
<path d="M435 106.172C435 105.784 435.315 105.469 435.703 105.469H438.984C439.373 105.469 439.688 105.784 439.688 106.172V111.797C439.688 112.185 439.373 112.5 438.984 112.5H435.703C435.315 112.5 435 112.185 435 111.797V106.172Z" fill="#B03E67"/>
<path d="M430 105H454V107.5C454 108.881 452.926 110 451.6 110H432.4C431.074 110 430 108.881 430 107.5V105Z" fill="white"/>
<path d="M437.344 87.8906C437.344 85.949 435.77 84.375 433.828 84.375C431.886 84.375 430.312 85.949 430.312 87.8906V90.2344C430.312 92.176 431.886 93.75 433.828 93.75C435.77 93.75 437.344 92.176 437.344 90.2344V87.8906Z" fill="#1B0B47"/>
<path d="M460.781 87.8906C460.781 85.949 459.207 84.375 457.266 84.375C455.324 84.375 453.75 85.949 453.75 87.8906V90.2344C453.75 92.176 455.324 93.75 457.266 93.75C459.207 93.75 460.781 92.176 460.781 90.2344V87.8906Z" fill="#1B0B47"/>
</g>
<g clip-path="url(#clip3_609_125)">
<path d="M240 236C240 194.579 206.421 161 165 161C123.579 161 90 194.579 90 236C90 277.421 123.579 311 165 311C206.421 311 240 277.421 240 236Z" fill="#EF4444"/>
<path d="M132.188 259.438C138.66 259.438 143.906 254.191 143.906 247.719C143.906 241.247 138.66 236 132.188 236C125.715 236 120.469 241.247 120.469 247.719C120.469 254.191 125.715 259.438 132.188 259.438Z" fill="#EAC0B3"/>
<path d="M132.188 257.094H172.031V315.384C172.031 315.384 163.493 320.375 152.109 320.375C140.726 320.375 132.188 312.225 132.188 312.225V257.094Z" fill="#EAC0B3"/>
<path d="M171.589 285.482C171.589 298.102 169.547 296.907 156.276 296.907C143.004 296.907 136.879 286.676 136.879 274.056C136.879 261.436 136.375 250.062 147.088 250.062C177.375 251.179 171.589 272.861 171.589 285.482Z" fill="#C99688"/>
<path d="M197.545 245.608C197.545 266.519 194.297 292.234 168.516 292.234C142.734 292.234 130.848 266.519 130.848 245.608C125.156 220.766 126.328 191.469 165 191.469C203.672 191.469 197.545 224.695 197.545 245.608Z" fill="#F5D0C5"/>
<path d="M179.062 257.094H176.719C175.424 257.094 174.375 258.143 174.375 259.438C174.375 260.732 175.424 261.781 176.719 261.781H179.062C180.357 261.781 181.406 260.732 181.406 259.438C181.406 258.143 180.357 257.094 179.062 257.094Z" fill="#EAC0B3"/>
<path d="M179.062 301.625H127.5C115.85 301.625 106.406 311.069 106.406 322.719V334.438C106.406 346.087 115.85 355.531 127.5 355.531H179.062C190.712 355.531 200.156 346.087 200.156 334.438V322.719C200.156 311.069 190.712 301.625 179.062 301.625Z" fill="#FB7185"/>
<path d="M129.844 296.938H174.375V303.969C174.375 303.969 162.656 306.312 152.109 306.312C141.562 306.312 129.844 303.969 129.844 303.969V296.938Z" fill="#FB7185"/>
<path d="M129.844 296.938H174.375V301.625C174.375 301.625 167.344 305.141 152.109 305.141C136.875 305.141 129.844 301.625 129.844 301.625V296.938Z" fill="#FB7185"/>
<path d="M128.672 299.281C128.672 296.692 130.77 294.594 133.359 294.594H170.859C173.448 294.594 175.547 296.692 175.547 299.281C175.547 299.281 163.828 301.625 152.109 301.625C140.391 301.625 128.672 299.281 128.672 299.281Z" fill="#FB7185"/>
<path fill-rule="evenodd" clip-rule="evenodd" d="M202.5 219.594C202.5 214.054 201.409 208.568 199.289 203.449C197.168 198.331 194.061 193.68 190.144 189.763C186.226 185.845 181.575 182.738 176.457 180.618C171.338 178.497 165.853 177.406 160.312 177.406C154.772 177.406 149.287 178.497 144.168 180.618C139.05 182.738 134.399 185.845 130.481 189.763C126.564 193.68 123.457 198.331 121.336 203.449C119.366 208.206 118.284 213.28 118.141 218.42L118.125 218.422V219.594V313.344H143.906V242.088C149.73 240.967 159.795 238.502 172.519 233.283C185.324 228.03 193.315 223.068 197.521 220.072C198.089 225.987 197.892 232.165 197.71 237.91C197.625 240.594 197.542 243.183 197.542 245.608C197.542 246.563 197.523 247.524 197.485 248.487C198.027 248.316 198.533 248.129 198.982 247.924C202.497 246.321 202.497 244.182 202.497 244.182V219.594H202.5ZM125.156 238.344C124.714 238.676 124.294 239.039 123.901 239.432C122.813 240.521 121.95 241.813 121.361 243.234C120.772 244.656 120.469 246.18 120.469 247.719C120.469 249.258 120.772 250.782 121.361 252.203C121.95 253.625 122.813 254.917 123.901 256.005C124.294 256.398 124.714 256.762 125.156 257.094V238.344Z" fill="#FDE047"/>
<path d="M157.801 268.812C157.801 267.518 158.851 266.469 160.145 266.469H181.574C182.868 266.469 183.917 267.518 183.917 268.812C183.917 275.285 178.671 280.531 172.199 280.531H169.52C163.048 280.531 157.801 275.285 157.801 268.812Z" fill="#66253C"/>
<path fill-rule="evenodd" clip-rule="evenodd" d="M176.144 279.851C174.911 280.291 173.583 280.531 172.199 280.531H169.52C163.205 280.531 158.056 275.536 157.811 269.281C159.601 268.611 162.259 268.688 164.883 268.764C165.716 268.788 166.546 268.813 167.344 268.813C172.522 268.813 176.719 272.485 176.719 277.016C176.719 278.012 176.516 278.967 176.144 279.851Z" fill="#B03E67"/>
<path d="M160.312 266.469H183.75V268.812C183.75 270.107 182.701 271.156 181.406 271.156H162.656C161.362 271.156 160.312 270.107 160.312 268.812V266.469Z" fill="white"/>
<path d="M167.344 248.891C167.344 246.949 165.77 245.375 163.828 245.375C161.886 245.375 160.312 246.949 160.312 248.891V251.234C160.312 253.176 161.886 254.75 163.828 254.75C165.77 254.75 167.344 253.176 167.344 251.234V248.891Z" fill="#0891B2"/>
<path d="M190.781 248.891C190.781 246.949 189.207 245.375 187.266 245.375C185.324 245.375 183.75 246.949 183.75 248.891V251.234C183.75 253.176 185.324 254.75 187.266 254.75C189.207 254.75 190.781 253.176 190.781 251.234V248.891Z" fill="#0891B2"/>
</g>
<g clip-path="url(#clip4_609_125)">
<path d="M420 236C420 194.579 386.421 161 345 161C303.579 161 270 194.579 270 236C270 277.421 303.579 311 345 311C386.421 311 420 277.421 420 236Z" fill="#E4ECF7"/>
<path d="M312.188 259.438C318.66 259.438 323.906 254.191 323.906 247.719C323.906 241.247 318.66 236 312.188 236C305.715 236 300.469 241.247 300.469 247.719C300.469 254.191 305.715 259.438 312.188 259.438Z" fill="#EAC0B3"/>
<path d="M312.188 257.094H352.031V315.384C352.031 315.384 343.493 320.375 332.109 320.375C320.726 320.375 312.188 312.225 312.188 312.225V257.094Z" fill="#EAC0B3"/>
<path d="M352.031 287.253C352.031 300.504 349.963 299.249 336.523 299.249C323.082 299.249 316.879 288.507 316.879 275.256C316.879 262.005 316.369 250.062 327.218 250.062C357.891 251.234 352.031 274.001 352.031 287.253Z" fill="#C99688"/>
<path d="M377.545 245.608C377.545 266.519 386.183 292.234 348.516 292.234C310.848 292.234 310.848 266.519 310.848 245.608C305.156 220.766 306.328 191.469 345 191.469C383.672 191.469 377.545 224.695 377.545 245.608Z" fill="#F5D0C5"/>
<path d="M359.062 257.094H356.719C355.424 257.094 354.375 258.143 354.375 259.438C354.375 260.732 355.424 261.781 356.719 261.781H359.062C360.357 261.781 361.406 260.732 361.406 259.438C361.406 258.143 360.357 257.094 359.062 257.094Z" fill="#EAC0B3"/>
<path d="M359.062 301.625H307.5C295.85 301.625 286.406 311.069 286.406 322.719V334.438C286.406 346.087 295.85 355.531 307.5 355.531H359.062C370.712 355.531 380.156 346.087 380.156 334.438V322.719C380.156 311.069 370.712 301.625 359.062 301.625Z" fill="#A78BFA"/>
<path d="M337.801 268.812C337.801 267.518 338.851 266.469 340.145 266.469H361.574C362.868 266.469 363.917 267.518 363.917 268.812C363.917 275.285 358.671 280.531 352.199 280.531H349.52C343.048 280.531 337.801 275.285 337.801 268.812Z" fill="#66253C"/>
<path fill-rule="evenodd" clip-rule="evenodd" d="M356.144 279.851C354.911 280.291 353.583 280.531 352.199 280.531H349.52C343.205 280.531 338.056 275.536 337.811 269.281C339.601 268.611 342.259 268.688 344.883 268.764C345.716 268.788 346.546 268.813 347.344 268.813C352.522 268.813 356.719 272.485 356.719 277.016C356.719 278.012 356.516 278.967 356.144 279.851Z" fill="#B03E67"/>
<path d="M340.312 266.469H363.75V268.812C363.75 270.107 362.701 271.156 361.406 271.156H342.656C341.362 271.156 340.312 270.107 340.312 268.812V266.469Z" fill="white"/>
<path d="M347.344 248.891C347.344 246.949 345.77 245.375 343.828 245.375C341.886 245.375 340.312 246.949 340.312 248.891V251.234C340.312 253.176 341.886 254.75 343.828 254.75C345.77 254.75 347.344 253.176 347.344 251.234V248.891Z" fill="#1B0B47"/>
<path d="M370.781 248.891C370.781 246.949 369.207 245.375 367.266 245.375C365.324 245.375 363.75 246.949 363.75 248.891V251.234C363.75 253.176 365.324 254.75 367.266 254.75C369.207 254.75 370.781 253.176 370.781 251.234V248.891Z" fill="#1B0B47"/>
<path fill-rule="evenodd" clip-rule="evenodd" d="M357.891 261.781C342.656 265.297 332.109 266.469 332.109 266.469C332.109 266.469 334.453 272.328 340.312 271.156C345 270.219 354.375 268.031 357.891 266.469V261.781ZM359.062 261.781C373.125 264.125 382.5 265.896 382.5 265.896C382.5 265.896 379.877 271.013 374.297 269.984C374.055 269.94 373.804 269.894 373.545 269.846C369.04 269.018 362.229 267.766 359.062 266.469V261.781Z" fill="#1B0B47"/>
<path fill-rule="evenodd" clip-rule="evenodd" d="M338.073 227.051C357.234 229.858 390.867 234.783 394.313 203.79C396.771 181.67 363.59 155.863 327.952 179.212C305.561 182.53 299.96 199.558 298.684 214.246C296.958 216.069 295.997 218.485 296 220.995C296 222.298 296.253 223.544 296.713 224.682C296.253 225.82 296 227.066 296 228.369C296 231.087 297.104 233.547 298.886 235.324C298.473 236.676 298.357 238.101 298.545 239.502C298.734 240.902 299.222 242.246 299.976 243.441C300.731 244.636 301.734 245.654 302.918 246.427C304.101 247.199 305.438 247.707 306.836 247.916C308.233 248.125 309.66 248.03 311.017 247.637C312.375 247.245 313.633 246.565 314.704 245.643C315.775 244.721 316.634 243.578 317.224 242.294C317.814 241.01 318.119 239.613 318.12 238.2C319.621 238.2 321.101 237.857 322.448 237.197C323.795 236.537 324.973 235.577 325.892 234.391C326.811 233.206 327.447 231.826 327.75 230.356C328.053 228.887 328.016 227.368 327.642 225.916C327.745 225.911 327.849 225.911 327.952 225.911C330.292 225.911 333.826 226.427 338.073 227.051V227.051Z" fill="#1B0B47"/>
</g>
<defs>
<clipPath id="clip0_609_125">
<rect width="150" height="150" rx="75" fill="white"/>
</clipPath>
<clipPath id="clip1_609_125">
<rect x="180" width="150" height="150" rx="75" fill="white"/>
</clipPath>
<clipPath id="clip2_609_125">
<rect x="360" width="150" height="150" rx="75" fill="white"/>
</clipPath>
<clipPath id="clip3_609_125">
<rect x="90" y="161" width="150" height="150" rx="75" fill="white"/>
</clipPath>
<clipPath id="clip4_609_125">
<rect x="270" y="161" width="150" height="150" rx="75" fill="white"/>
</clipPath>
</defs>
</svg>
